# xmcd
#
# Track frame offsets: 
#        150
#        18670
#        33501
#        52342
#        68004
#        78097
#        94872
#        112642
#        129398
#        141545
#        158999
#        189736
#        202381
#
# Disc length: 2887 seconds
#
# Revision: 0
# Processed by: cddbd v1.4PL0 Copyright (c) Steve Scherf et al.
# Submitted via: ExactAudioCopy v0.90b3
#
DISCID=bc0b450d
DTITLE=Barbarian Blues Band - Devil's Jam
DYEAR=1998
DGENRE=Blues
TTITLE0=La Brunch
TTITLE1=Driving down the highway
TTITLE2=Leavin' Trunk
TTITLE3=Dogs
TTITLE4=Beer, blues and junkfood
TTITLE5=Omar
TTITLE6=Go down
TTITLE7=Ain't gonna tell
TTITLE8=Red suit blues
TTITLE9=Hanging low
TTITLE10=Blues six
TTITLE11=Nothing works out right
TTITLE12=Chicken street
EXTD=
EXTT0=
EXTT1=
EXTT2=
EXTT3=
EXTT4=
EXTT5=
EXTT6=
EXTT7=
EXTT8=
EXTT9=
EXTT10=
EXTT11=
EXTT12=
PLAYORDER=
